<svg xmlns="http://www.w3.org/2000/svg" width="191.25" height="84.17" viewBox="0 0 191.25 84.17"><defs><clipPath id="a"><path fill="#fff" d="M0 0H191.25V84.17H0z"/></clipPath></defs><g clip-path="url(#a)"><path fill="#fff" d="M10.752,53.476C2.9,38.491,7.024,20.127,19.967,12.459c.3-.176.6-.337.9-.5l-.959-1.967C8.74,15.619.737,26.775.048,39.627-.945,58.14,13.611,73.149,32.559,73.149A36.071,36.071,0,0,0,48.806,69.26l-1.058-2.169c-12.851,7.091-29.275,1.118-37-13.616" transform="translate(0 -6.105)"/><path fill="#fff" d="M305.424,82.409a16.881,16.881,0,0,1,5.18-12.331,17.455,17.455,0,0,1,5.706-3.631,18.963,18.963,0,0,1,7.071-1.309,19.739,19.739,0,0,1,6.989,1.227,17.127,17.127,0,0,1,5.706,3.483,16.076,16.076,0,0,1,3.832,5.5,18.948,18.948,0,0,1,.214,13.737,16.079,16.079,0,0,1-3.486,5.5,16.971,16.971,0,0,1-5.64,3.811,19.438,19.438,0,0,1-7.679,1.423,19.777,19.777,0,0,1-6.939-1.21,16.96,16.96,0,0,1-5.69-3.468,16.285,16.285,0,0,1-3.848-5.479,17.836,17.836,0,0,1-1.414-7.245m18.648,15.148a9.914,9.914,0,0,0,4.292-.925,9.518,9.518,0,0,0,3.371-2.673,12.8,12.8,0,0,0,2.2-4.257,18.881,18.881,0,0,0,.789-5.677,27.471,27.471,0,0,0-.756-6.618,16.531,16.531,0,0,0-2.253-5.281,10.406,10.406,0,0,0-9.061-4.736,9.972,9.972,0,0,0-4.276.908,9.713,9.713,0,0,0-3.371,2.624,12.285,12.285,0,0,0-2.22,4.208A18.732,18.732,0,0,0,312,80.791a27.1,27.1,0,0,0,.773,6.634,16.923,16.923,0,0,0,2.286,5.33,10.987,10.987,0,0,0,3.766,3.532,10.492,10.492,0,0,0,5.246,1.271" transform="translate(-186.581 -39.792)"/><path fill="#fff" d="M205.9,99.779v.132h-7.6v-.132s.937-2.778.954-12.73v-7.96c0-10.285-.954-12.73-.954-12.73v-.132h7.6v.132a11.3,11.3,0,0,0-.444,1.842c-.121.723-.214,1.987-.279,3.127a27.681,27.681,0,0,1,6.207-4.613,10.374,10.374,0,0,1,5.776-1.1,8.524,8.524,0,0,1,3.316.914l-1.9,5.56a8.219,8.219,0,0,0-4.747-1.863c-1.983.025-3.827.869-6.473,2.726-.777.546-2.314,1.711-2.314,1.711-.044.636-.066,3.063-.066,3.9v8.486c0,10.065.921,12.73.921,12.73" transform="translate(-121.139 -40.058)"/><path fill="#fff" d="M276.739,100.805v.132h-7.6v-.132s.954-2.529.954-12.73v-7.96c0-10.848-.954-12.73-.954-12.73v-.132h7.6v.132s-.921,2.164-.921,12.73v7.96c0,11.215.921,12.73.921,12.73" transform="translate(-164.415 -41.084)"/><path fill="#fff" d="M420.692,71.746q1.348-1.118,2.911-2.237a26.774,26.774,0,0,1,3.24-1.99,20.9,20.9,0,0,1,3.421-1.414,11.481,11.481,0,0,1,3.421-.543,9.741,9.741,0,0,1,4.358.888,8.378,8.378,0,0,1,2.928,2.335,9.279,9.279,0,0,1,1.645,3.306,14.187,14.187,0,0,1,.51,3.767V87.042c0,10.736.921,12.73.921,12.73V99.9h-7.6v-.132s.954-2.022.954-12.73V78.1q0-4.342-1.744-6.381a5.834,5.834,0,0,0-4.671-2.039,7.486,7.486,0,0,0-2.368.444,17.781,17.781,0,0,0-2.7,1.184,25.432,25.432,0,0,0-2.763,1.727,27.345,27.345,0,0,0-2.6,2.105l-.066,3.942v7.96c0,10.117.921,12.73.921,12.73V99.9h-7.6v-.132s.954-1.459.954-12.73v-7.96c0-10.932-.954-12.73-.954-12.73V66.22h7.6v.132c-.451.939-.724,5.394-.724,5.394" transform="translate(-252.797 -40.051)"/><path fill="#fff" d="M146.942,187.673h-1.006a.234.234,0,0,0-.234.234v10.519a.234.234,0,0,0,.234.234h1.337a.234.234,0,0,0,.234-.234v-4.241a.234.234,0,0,1,.234-.234H152.3a.234.234,0,0,0,.234-.234v-1.18a.234.234,0,0,0-.234-.234h-4.555a.234.234,0,0,1-.234-.234v-2.514a.234.234,0,0,1,.234-.234h4.821a.234.234,0,0,0,.234-.234v-1.18a.234.234,0,0,0-.234-.234h-5.62Z" transform="translate(-89.008 -114.648)"/><path fill="#fff" d="M175.826,198.66h1.337a.234.234,0,0,0,.234-.234V187.907a.234.234,0,0,0-.234-.234h-1.337a.234.234,0,0,0-.234.234v10.519a.234.234,0,0,0,.234.234" transform="translate(-107.268 -114.648)"/><path fill="#fff" d="M200.485,195.255l-5.737-7.49a.233.233,0,0,0-.186-.092h-.906a.234.234,0,0,0-.234.234v10.519a.234.234,0,0,0,.234.234h1.337a.234.234,0,0,0,.234-.234v-7.348l5.737,7.49a.235.235,0,0,0,.186.091h.906a.234.234,0,0,0,.234-.234V187.907a.234.234,0,0,0-.234-.234h-1.337a.234.234,0,0,0-.234.234Z" transform="translate(-118.16 -114.648)"/><path fill="#fff" d="M231.947,187.818l-4.328,10.519a.234.234,0,0,0,.216.323h1.407a.234.234,0,0,0,.217-.147l.727-1.824a.235.235,0,0,1,.218-.147h4.4a.234.234,0,0,1,.218.148l.72,1.823a.234.234,0,0,0,.218.148H237.4a.234.234,0,0,0,.216-.323l-4.3-10.519a.234.234,0,0,0-.217-.146h-.942a.234.234,0,0,0-.216.145M231,194.651l1.618-4.06,1.6,4.06a.234.234,0,0,1-.217.32h-2.787a.234.234,0,0,1-.217-.321" transform="translate(-139.04 -114.648)"/><path fill="#fff" d="M271.842,195.255l-5.737-7.49a.233.233,0,0,0-.186-.092h-.906a.234.234,0,0,0-.234.234v10.519a.234.234,0,0,0,.234.234h1.337a.234.234,0,0,0,.234-.234v-7.348l5.737,7.49a.235.235,0,0,0,.186.091h.906a.234.234,0,0,0,.234-.234V187.907a.234.234,0,0,0-.234-.234h-1.337a.234.234,0,0,0-.234.234Z" transform="translate(-161.751 -114.648)"/><path fill="#fff" d="M306.593,196.538a4.246,4.246,0,0,1-1.7.306,3.831,3.831,0,0,1-1.491-.283,3.382,3.382,0,0,1-1.17-.809,3.658,3.658,0,0,1-.761-1.248,4.848,4.848,0,0,1,0-3.17,3.658,3.658,0,0,1,.761-1.248,3.371,3.371,0,0,1,1.17-.808A3.817,3.817,0,0,1,304.89,189a4.106,4.106,0,0,1,1.624.3,3.41,3.41,0,0,1,1.023.666.232.232,0,0,0,.327,0l.888-.889a.237.237,0,0,0,0-.34,5.79,5.79,0,0,0-1.551-1.025,5.573,5.573,0,0,0-2.307-.44,5.476,5.476,0,0,0-3.971,1.648,5.379,5.379,0,0,0-1.162,1.8,6.161,6.161,0,0,0,0,4.411,5.456,5.456,0,0,0,1.162,1.805,5.357,5.357,0,0,0,1.766,1.209,5.57,5.57,0,0,0,2.206.432,5.869,5.869,0,0,0,2.338-.44,5.52,5.52,0,0,0,1.6-1.04.238.238,0,0,0,0-.339l-.89-.889a.231.231,0,0,0-.326,0,3.512,3.512,0,0,1-1.023.674" transform="translate(-182.87 -114.401)"/><path fill="#fff" d="M335.6,198.66h1.337a.234.234,0,0,0,.234-.234V187.907a.234.234,0,0,0-.234-.234H335.6a.234.234,0,0,0-.235.234v10.519a.235.235,0,0,0,.235.234" transform="translate(-204.875 -114.648)"/><path fill="#fff" d="M355.745,187.818l-4.328,10.519a.234.234,0,0,0,.216.323h1.407a.234.234,0,0,0,.217-.147l.727-1.824a.234.234,0,0,1,.217-.147h4.4a.234.234,0,0,1,.218.148l.72,1.823a.235.235,0,0,0,.218.148H361.2a.234.234,0,0,0,.217-.323l-4.3-10.519a.234.234,0,0,0-.217-.146h-.942a.234.234,0,0,0-.216.145m-.948,6.833,1.618-4.06,1.6,4.06a.234.234,0,0,1-.217.32h-2.787a.234.234,0,0,1-.218-.321" transform="translate(-214.667 -114.648)"/><path fill="#fff" d="M390.382,196.778v-8.871a.234.234,0,0,0-.234-.234h-1.337a.234.234,0,0,0-.234.234v10.519a.234.234,0,0,0,.234.234h6.516a.234.234,0,0,0,.234-.234v-1.18a.234.234,0,0,0-.234-.234h-4.711a.234.234,0,0,1-.234-.234" transform="translate(-237.378 -114.648)"/><path fill="#fff" d="M272.866,18.418,271.4,18.8a6.4,6.4,0,0,0-4.594,4.594l-.379,1.464a.478.478,0,0,1-.925,0l-.379-1.464a6.4,6.4,0,0,0-4.594-4.594l-1.464-.378a.478.478,0,0,1,0-.925l1.464-.379a6.4,6.4,0,0,0,4.594-4.594l.379-1.464a.478.478,0,0,1,.925,0l.379,1.464a6.4,6.4,0,0,0,4.594,4.594l1.464.379a.478.478,0,0,1,0,.925" transform="translate(-158.043 -6.535)"/><path fill="#00adef" d="M103.016,3.243C97.127,7.588,91.434,11.567,86,15.2A32.41,32.41,0,0,0,58.094,0,36.071,36.071,0,0,0,41.847,3.888l.959,1.967c12.774-6.861,28.975-.927,36.679,13.612A362.327,362.327,0,0,1,36.176,43.6a.455.455,0,0,0,.311.85C56.263,39.328,71,31.787,81.644,24.455c4.79,13.9.275,29.309-11.3,36.166-.218.129-.439.244-.658.365l1.058,2.169C81.912,57.53,89.915,46.374,90.6,33.522a31.771,31.771,0,0,0-2.371-13.965A85.183,85.183,0,0,0,103.655,3.87a.453.453,0,0,0-.639-.627" transform="translate(-21.939)"/></g></svg>